<svg xmlns="http://www.w3.org/2000/svg" width="1600" height="1000" viewBox="0 0 1600 1000" role="img" aria-label="Hero — Careers at InstaBuilt">
  <defs>
    <linearGradient id="w" x1="0" y1="0" x2="1" y2="1">
      <stop offset="0" stop-color="#EBE4D6"/>
      <stop offset="1" stop-color="#DED3BE"/>
    </linearGradient>
  </defs>
  <rect width="1600" height="1000" fill="url(#w)"/>
  <line x1="110" y1="808" x2="1490" y2="808" stroke="#8D806C" stroke-width="2" opacity="0.55"/><rect x="340" y="360" width="320" height="448" fill="none" stroke="#8D806C" stroke-width="2"/><rect x="372.0" y="413.8" width="76.8" height="65.0" fill="none" stroke="#8D806C" stroke-width="1.5" opacity="0.7"/><rect x="461.6" y="413.8" width="76.8" height="65.0" fill="none" stroke="#8D806C" stroke-width="1.5" opacity="0.7"/><rect x="551.2" y="413.8" width="76.8" height="65.0" fill="none" stroke="#8D806C" stroke-width="1.5" opacity="0.7"/><rect x="372.0" y="505.6" width="76.8" height="65.0" fill="none" stroke="#8D806C" stroke-width="1.5" opacity="0.7"/><rect x="461.6" y="505.6" width="76.8" height="65.0" fill="none" stroke="#8D806C" stroke-width="1.5" opacity="0.7"/><rect x="551.2" y="505.6" width="76.8" height="65.0" fill="none" stroke="#8D806C" stroke-width="1.5" opacity="0.7"/><rect x="372.0" y="597.4" width="76.8" height="65.0" fill="none" stroke="#8D806C" stroke-width="1.5" opacity="0.7"/><rect x="461.6" y="597.4" width="76.8" height="65.0" fill="none" stroke="#8D806C" stroke-width="1.5" opacity="0.7"/><rect x="551.2" y="597.4" width="76.8" height="65.0" fill="none" stroke="#8D806C" stroke-width="1.5" opacity="0.7"/><rect x="372.0" y="689.3" width="76.8" height="65.0" fill="none" stroke="#8D806C" stroke-width="1.5" opacity="0.7"/><rect x="461.6" y="689.3" width="76.8" height="65.0" fill="none" stroke="#8D806C" stroke-width="1.5" opacity="0.7"/><rect x="551.2" y="689.3" width="76.8" height="65.0" fill="none" stroke="#8D806C" stroke-width="1.5" opacity="0.7"/><rect x="680" y="250" width="340" height="558" fill="none" stroke="#8D806C" stroke-width="2"/><rect x="714.0" y="317.0" width="57.8" height="58.0" fill="none" stroke="#8D806C" stroke-width="1.5" opacity="0.7"/><rect x="785.4" y="317.0" width="57.8" height="58.0" fill="none" stroke="#8D806C" stroke-width="1.5" opacity="0.7"/><rect x="856.8" y="317.0" width="57.8" height="58.0" fill="none" stroke="#8D806C" stroke-width="1.5" opacity="0.7"/><rect x="928.2" y="317.0" width="57.8" height="58.0" fill="none" stroke="#8D806C" stroke-width="1.5" opacity="0.7"/><rect x="714.0" y="408.5" width="57.8" height="58.0" fill="none" stroke="#8D806C" stroke-width="1.5" opacity="0.7"/><rect x="785.4" y="408.5" width="57.8" height="58.0" fill="none" stroke="#8D806C" stroke-width="1.5" opacity="0.7"/><rect x="856.8" y="408.5" width="57.8" height="58.0" fill="none" stroke="#8D806C" stroke-width="1.5" opacity="0.7"/><rect x="928.2" y="408.5" width="57.8" height="58.0" fill="none" stroke="#8D806C" stroke-width="1.5" opacity="0.7"/><rect x="714.0" y="500.0" width="57.8" height="58.0" fill="none" stroke="#8D806C" stroke-width="1.5" opacity="0.7"/><rect x="785.4" y="500.0" width="57.8" height="58.0" fill="none" stroke="#8D806C" stroke-width="1.5" opacity="0.7"/><rect x="856.8" y="500.0" width="57.8" height="58.0" fill="none" stroke="#8D806C" stroke-width="1.5" opacity="0.7"/><rect x="928.2" y="500.0" width="57.8" height="58.0" fill="none" stroke="#8D806C" stroke-width="1.5" opacity="0.7"/><rect x="714.0" y="591.5" width="57.8" height="58.0" fill="none" stroke="#8D806C" stroke-width="1.5" opacity="0.7"/><rect x="785.4" y="591.5" width="57.8" height="58.0" fill="none" stroke="#8D806C" stroke-width="1.5" opacity="0.7"/><rect x="856.8" y="591.5" width="57.8" height="58.0" fill="none" stroke="#8D806C" stroke-width="1.5" opacity="0.7"/><rect x="928.2" y="591.5" width="57.8" height="58.0" fill="none" stroke="#8D806C" stroke-width="1.5" opacity="0.7"/><rect x="714.0" y="683.0" width="57.8" height="58.0" fill="none" stroke="#8D806C" stroke-width="1.5" opacity="0.7"/><rect x="785.4" y="683.0" width="57.8" height="58.0" fill="none" stroke="#8D806C" stroke-width="1.5" opacity="0.7"/><rect x="856.8" y="683.0" width="57.8" height="58.0" fill="none" stroke="#8D806C" stroke-width="1.5" opacity="0.7"/><rect x="928.2" y="683.0" width="57.8" height="58.0" fill="none" stroke="#8D806C" stroke-width="1.5" opacity="0.7"/><rect x="1040" y="500" width="300" height="308" fill="none" stroke="#8D806C" stroke-width="2"/><rect x="1070.0" y="537.0" width="72.0" height="65.7" fill="none" stroke="#8D806C" stroke-width="1.5" opacity="0.7"/><rect x="1154.0" y="537.0" width="72.0" height="65.7" fill="none" stroke="#8D806C" stroke-width="1.5" opacity="0.7"/><rect x="1238.0" y="537.0" width="72.0" height="65.7" fill="none" stroke="#8D806C" stroke-width="1.5" opacity="0.7"/><rect x="1070.0" y="621.1" width="72.0" height="65.7" fill="none" stroke="#8D806C" stroke-width="1.5" opacity="0.7"/><rect x="1154.0" y="621.1" width="72.0" height="65.7" fill="none" stroke="#8D806C" stroke-width="1.5" opacity="0.7"/><rect x="1238.0" y="621.1" width="72.0" height="65.7" fill="none" stroke="#8D806C" stroke-width="1.5" opacity="0.7"/><rect x="1070.0" y="705.3" width="72.0" height="65.7" fill="none" stroke="#8D806C" stroke-width="1.5" opacity="0.7"/><rect x="1154.0" y="705.3" width="72.0" height="65.7" fill="none" stroke="#8D806C" stroke-width="1.5" opacity="0.7"/><rect x="1238.0" y="705.3" width="72.0" height="65.7" fill="none" stroke="#8D806C" stroke-width="1.5" opacity="0.7"/>
  <rect x="18" y="18" width="1564" height="964" fill="none" stroke="#8D806C" stroke-width="3"/>
  <text x="86" y="132" font-family="Georgia, 'Times New Roman', serif" font-size="26" letter-spacing="6" fill="#4A4236" opacity="0.75">INSTABUILT · PLACEHOLDER</text>
  <text x="86" y="872" font-family="Georgia, 'Times New Roman', serif" font-size="58" fill="#4A4236">Hero</text>
  <text x="86" y="928" font-family="Georgia, 'Times New Roman', serif" font-size="34" fill="#4A4236" opacity="0.72">Careers at InstaBuilt</text>
</svg>
